<?xml version="1.0" encoding="utf-8"?>
<!-- Generator: Adobe Illustrator 27.5.0, SVG Export Plug-In . SVG Version: 6.00 Build 0)  -->
<svg version="1.1" xmlns="http://www.w3.org/2000/svg" xmlns:xlink="http://www.w3.org/1999/xlink" x="0px" y="0px"
	 viewBox="0 0 3710 3710" style="enable-background:new 0 0 3710 3710;" xml:space="preserve">
<g id="Background">
	<g>
		<g>
			<rect style="fill:#FFFFFF;" width="3710" height="3710"/>
		</g>
	</g>
</g>
<g id="Illustration">
	<g>
		<linearGradient id="SVGID_1_" gradientUnits="userSpaceOnUse" x1="3527.6345" y1="3947.9792" x2="1127.8329" y2="967.576">
			<stop  offset="0" style="stop-color:#B37CFF"/>
			<stop  offset="1" style="stop-color:#F895E7"/>
		</linearGradient>
		<path style="opacity:0.3;fill:url(#SVGID_1_);" d="M2867.434,2772.616c-55.123,58.031-107.279,95.454-148.487,125.021
			c-484.389,347.555-1057.55,246.244-1179.363,221.503c-179.879-36.535-527.582-107.155-778.965-402.776
			c-380.321-447.25-321.1-1151.88-26.097-1617.016c53.961-85.081,338.997-557.302,918.331-633.032
			c350.607-45.831,759.302,46.604,1055.267,294.565C3329.379,1281.372,3285.152,2332.856,2867.434,2772.616z"/>
		<g>
			
				<linearGradient id="SVGID_00000006681685950497384560000002291810908415441549_" gradientUnits="userSpaceOnUse" x1="1746.1833" y1="2784.9907" x2="1362.0251" y2="1279.2281" gradientTransform="matrix(0.9512 -0.3084 0.3077 0.949 -1029.7179 268.2228)">
				<stop  offset="0" style="stop-color:#A737D5"/>
				<stop  offset="1" style="stop-color:#EF497A"/>
			</linearGradient>
			<path style="fill:url(#SVGID_00000006681685950497384560000002291810908415441549_);" d="M1482.341,1631.239
				c-45.797-141.256-133.371-253.632-236.673-319.49c-92.346-58.873-159.196-150.865-184.412-257.328
				c-2.651-11.191-5.788-22.412-9.424-33.627c-55.079-169.885-203.822-273.857-332.225-232.227
				c-128.404,41.63-187.845,213.098-132.765,382.983c11.262,34.739,26.443,66.712,44.567,95.245
				c57.838,91.061,80.948,200.461,60.562,306.44c-18.217,94.71-12.424,201.246,21.912,307.15
				c51.209,157.949,154.652,279.795,273.91,340.873c45.109,23.102,85.852,54.245,119.667,91.94
				c56.195,62.639,135.009,91.878,207.097,68.506c77.768-25.214,125.943-104.596,128.852-197.006
				c1.646-52.294,13.568-103.59,33.223-152.118C1523.034,1918.017,1528.645,1774.057,1482.341,1631.239z"/>
			<path style="opacity:0.57;fill:#FFFFFF;" d="M823.163,954.714c53.176,106.838,102.877,215.299,151.444,324.278
				c12.154,27.239,23.868,54.671,35.671,82.064l17.697,41.093l17.354,41.241c11.463,27.539,23.306,54.92,34.457,82.59l33.459,83.003
				c21.598,55.619,43.669,111.053,64.232,167.075c10.321,27.994,21.186,55.781,30.938,83.987l29.642,84.461
				c38.383,113.006,73.942,227.031,103.664,342.632l-4.97,1.33l-25.53-85.645l-6.334-21.417l-6.869-21.26l-13.817-42.489
				l-13.734-42.507c-4.552-14.176-9.631-28.185-14.421-42.284c-9.768-28.138-19.312-56.349-29.262-84.42
				c-40.528-112.037-82.544-223.535-126.854-334.154c-22.578-55.139-44.682-110.467-67.644-165.453l-17.109-41.285l-17.454-41.142
				c-11.62-27.435-23.241-54.871-35.138-82.189c-23.328-54.837-47.049-109.512-71.217-163.991
				c-23.881-54.605-48.283-108.999-72.843-163.293L823.163,954.714z"/>
			<g style="opacity:0.5;">
				<path style="fill:#FFFFFF;" d="M705.146,1292.544c-1.247-0.098-2.443-0.732-3.215-1.837
					c-92.476-132.269-91.298-239.334-74.028-305.86c18.763-72.271,58.955-112.529,60.658-114.208
					c1.703-1.683,4.441-1.661,6.125,0.041c1.681,1.702,1.664,4.444-0.037,6.127c-0.402,0.397-40.395,40.556-58.471,110.667
					c-16.677,64.676-17.574,168.922,72.856,298.267c1.372,1.962,0.894,4.664-1.067,6.034
					C707.109,1292.374,706.112,1292.62,705.146,1292.544z"/>
			</g>
		</g>
		<g>
			
				<linearGradient id="SVGID_00000039125758144118161710000011440154324964812425_" gradientUnits="userSpaceOnUse" x1="3121.2551" y1="-3066.0981" x2="2877.1316" y2="-4022.9753" gradientTransform="matrix(0.8832 -0.469 0.469 0.8832 -200.9178 6585.6465)">
				<stop  offset="0" style="stop-color:#B37CFF"/>
				<stop  offset="1" style="stop-color:#F895E7"/>
			</linearGradient>
			<path style="fill:url(#SVGID_00000039125758144118161710000011440154324964812425_);" d="M1031.737,1949.536
				c-44.359-83.543-111.661-144.382-183.642-174.322c-64.347-26.765-116.412-77.1-144.023-141.088
				c-2.902-6.726-6.113-13.418-9.634-20.051c-53.35-100.475-158.009-149.318-233.764-109.094
				c-75.755,40.224-93.918,154.283-40.568,254.757c10.909,20.545,23.963,38.926,38.478,54.826
				c46.321,50.743,72.939,116.804,71.95,185.502c-0.884,61.393,14.577,127.562,47.834,190.197
				c49.601,93.415,127.889,158.448,209.328,183.635c30.803,9.527,59.768,24.576,85.122,44.496
				c42.135,33.1,94.719,42.769,137.25,20.187c45.881-24.362,67.22-79.437,58.776-137.706c-4.778-32.972-3.013-66.449,3.9-99.042
				C1089.064,2124.893,1076.587,2034.002,1031.737,1949.536z"/>
			<path style="opacity:0.57;fill:#FFFFFF;" d="M543.953,1597.783c45.156,61.149,88.315,123.697,130.823,186.695
				c10.634,15.745,21.014,31.658,31.445,47.538l15.643,23.823l15.445,23.953c10.234,16.009,20.69,31.876,30.743,48.001
				l30.164,48.371c19.699,32.503,39.672,64.837,58.767,97.707c9.57,16.419,19.458,32.65,28.696,49.264l27.937,49.704
				c36.579,66.643,71.505,134.236,102.951,203.458l-2.964,1.381l-25.495-50.899l-6.344-12.734l-6.661-12.576l-13.369-25.125
				l-13.319-25.145c-4.424-8.389-9.159-16.615-13.724-24.93c-9.241-16.57-18.349-33.211-27.695-49.72
				c-37.815-65.799-76.501-131.098-116.526-195.591c-20.259-32.094-40.241-64.359-60.723-96.314l-15.295-24.008l-15.496-23.88
				c-10.321-15.927-20.643-31.853-31.125-47.675c-20.694-31.822-41.617-63.5-62.797-95.005
				c-21.015-31.616-42.332-63.042-63.737-94.388L543.953,1597.783z"/>
			<g style="opacity:0.5;">
				<path style="fill:#FFFFFF;" d="M529.057,1817.694c-0.84,0.126-1.728-0.11-2.408-0.723
					c-81.414-73.348-97.017-144.354-95.772-191.005c1.353-50.679,21.781-83.461,22.65-84.832c0.869-1.374,2.684-1.779,4.058-0.91
					c1.372,0.869,1.781,2.685,0.913,4.059c-0.205,0.324-20.516,33.01-21.746,82.155c-1.135,45.336,14.222,114.434,93.835,186.161
					c1.208,1.089,1.305,2.949,0.217,4.155C530.33,1817.281,529.708,1817.596,529.057,1817.694z"/>
			</g>
		</g>
		<g>
			
				<linearGradient id="SVGID_00000183958386912735599540000014166818717214756004_" gradientUnits="userSpaceOnUse" x1="1513.0562" y1="1613.5587" x2="418.9566" y2="-1334.7323" gradientTransform="matrix(0.5577 0.7916 -0.7916 0.5606 2910.6504 110.0656)">
				<stop  offset="0" style="stop-color:#A737D5"/>
				<stop  offset="1" style="stop-color:#EF497A"/>
			</linearGradient>
			<path style="fill:url(#SVGID_00000183958386912735599540000014166818717214756004_);" d="M3109.644,1881.909
				c56.642-111.422,71.41-230.354,49.278-330.842c-19.785-89.831-4.828-184.323,43.37-262.792
				c5.066-8.248,9.862-16.802,14.36-25.649c68.12-134.005,41.675-284.152-59.069-335.364
				c-100.743-51.212-237.634,15.904-305.754,149.908c-13.93,27.401-23.899,55.473-30.085,83.236
				c-19.742,88.6-70.93,167.573-145.851,218.743c-66.956,45.727-126.701,112.734-169.167,196.271
				c-63.334,124.589-74.32,258.571-39.901,365.658c13.019,40.505,18.682,83.223,16.359,125.746
				c-3.861,70.665,25.483,134.795,82.043,163.548c61.015,31.016,136.625,12.179,193.149-41.244
				c31.985-30.231,69.466-53.781,109.886-71.098C2963.683,2077.148,3052.377,1994.562,3109.644,1881.909z"/>
			<path style="opacity:0.57;fill:#FFFFFF;" d="M3120.392,1087.748c-31.859,95.253-66.74,189.416-102.599,283.217
				c-8.955,23.454-18.283,46.762-27.537,70.1l-13.887,35.005l-14.178,34.891c-9.542,23.223-18.764,46.578-28.568,69.695
				l-29.404,69.35c-20.19,45.985-39.99,92.138-61.033,137.749c-10.487,22.818-20.529,45.837-31.48,68.444l-32.528,67.96
				c-44.281,90.171-90.836,179.279-141.785,265.869l-3.732-2.15l35.667-66.232l8.949-16.532l8.539-16.756l17.013-33.54
				l17.072-33.501c5.711-11.156,11.01-22.525,16.534-33.776c10.901-22.577,21.977-45.065,32.73-67.711
				c42.434-90.864,83.668-182.287,123.02-274.544c19.325-46.279,39.044-92.388,58.05-138.802l14.349-34.771l14.06-34.889
				c9.387-23.255,18.774-46.51,27.926-69.859c18.703-46.542,37.076-93.221,55.068-140.045
				c18.237-46.732,36.039-93.645,53.689-140.592L3120.392,1087.748z"/>
		</g>
		<g>
			
				<linearGradient id="SVGID_00000032632492920920907170000016214030285001759666_" gradientUnits="userSpaceOnUse" x1="3543.9285" y1="2082.4685" x2="2377.7585" y2="2448.53">
				<stop  offset="0" style="stop-color:#B37CFF"/>
				<stop  offset="1" style="stop-color:#F895E7"/>
			</linearGradient>
			<path style="fill:url(#SVGID_00000032632492920920907170000016214030285001759666_);" d="M3116.753,2532.423
				c52.798-83.795,73.024-176.611,62.745-257.589c-9.189-72.39,9.429-145.895,53.183-204.294
				c4.599-6.138,9.006-12.539,13.198-19.192c63.498-100.777,53.377-221.284-22.606-269.16
				c-75.983-47.876-189.054-4.99-252.552,95.787c-12.985,20.607-22.885,42.036-29.772,63.5
				c-21.979,68.5-68.132,127.075-131.055,161.946c-56.232,31.161-108.292,79.657-147.876,142.481
				c-59.037,93.697-77.353,198.676-57.833,285.771c7.384,32.944,8.792,67.091,3.898,100.495
				c-8.132,55.511,10.463,108.314,53.122,135.193c46.019,28.995,107.162,19.705,155.699-18.303
				c27.466-21.508,58.796-37.335,92.004-48.024C2987.301,2675.802,3063.373,2617.144,3116.753,2532.423z"/>
			<path style="opacity:0.57;fill:#FFFFFF;" d="M3182.329,1906.16c-32.038,72.858-66.389,144.632-101.486,216.048
				c-8.767,17.858-17.818,35.573-26.813,53.316l-13.497,26.614l-13.719,26.502c-9.214,17.632-18.185,35.391-27.599,52.92
				l-28.236,52.586c-19.271,34.818-38.245,69.798-58.163,104.258c-9.932,17.242-19.528,34.677-29.812,51.718l-30.606,51.258
				c-41.496,67.928-84.714,134.848-131.226,199.456l-2.797-1.973l32.964-49.662l8.264-12.393l7.957-12.599l15.864-25.226
				l15.907-25.191c5.318-8.387,10.325-16.972,15.502-25.448c10.243-17.021,20.617-33.96,30.748-51.046
				c40.085-68.612,79.263-137.754,117.011-207.692c18.607-35.114,37.514-70.065,55.879-105.309l13.846-26.396l13.625-26.51
				c9.095-17.668,18.188-35.337,27.104-53.097c18.134-35.367,36.018-70.868,53.61-106.511
				c17.779-35.552,35.229-71.279,52.56-107.045L3182.329,1906.16z"/>
		</g>
		<g>
			<g>
				<polygon style="fill:#FFFFFF;" points="2213.286,1264.064 1520.487,1192.27 827.688,1273.456 827.688,3000.484 
					1520.487,2957.734 2213.286,3005.128 2905.222,2932.786 2905.222,1223.92 				"/>
				
					<linearGradient id="SVGID_00000154411387923263728200000001939312243000979076_" gradientUnits="userSpaceOnUse" x1="1663.0602" y1="2097.7388" x2="-361.0277" y2="2113.2688">
					<stop  offset="0" style="stop-color:#53D8FF"/>
					<stop  offset="1" style="stop-color:#3840F7"/>
				</linearGradient>
				<polygon style="fill:url(#SVGID_00000154411387923263728200000001939312243000979076_);" points="1535.358,2918.361 
					877.107,2958.916 877.107,1320.588 1535.358,1243.572 				"/>
				
					<linearGradient id="SVGID_00000173162384108772100280000010748999009125040057_" gradientUnits="userSpaceOnUse" x1="865.8387" y1="2155.1477" x2="3399.0942" y2="2023.9983">
					<stop  offset="0" style="stop-color:#53D8FF"/>
					<stop  offset="1" style="stop-color:#3840F7"/>
				</linearGradient>
				<polygon style="fill:url(#SVGID_00000173162384108772100280000010748999009125040057_);" points="2193.609,2963.322 
					1535.358,2918.361 1535.358,1243.572 2193.609,1311.679 				"/>
				
					<linearGradient id="SVGID_00000018916646397756024180000016059297328446595775_" gradientUnits="userSpaceOnUse" x1="2163.9019" y1="2118.4592" x2="4778.1348" y2="2118.4592">
					<stop  offset="0" style="stop-color:#53D8FF"/>
					<stop  offset="1" style="stop-color:#3840F7"/>
				</linearGradient>
				<polygon style="fill:url(#SVGID_00000018916646397756024180000016059297328446595775_);" points="2851.04,2894.695 
					2193.609,2963.322 2193.609,1311.679 2851.04,1273.597 				"/>
				<rect x="1520.454" y="1243.572" style="opacity:0.47;fill:#FFFFFF;" width="14.904" height="1675.248"/>
			</g>
			<g>
				<defs>
					<polygon id="SVGID_00000008862342910502816710000015928235190304291510_" points="2192.561,1309.476 1534.31,1241.369 
						876.06,1318.385 876.06,2956.712 1534.31,2916.158 2192.561,2961.119 2849.992,2892.491 2849.992,1271.394 					"/>
				</defs>
				<clipPath id="SVGID_00000131330630994736714340000004671568160476698260_">
					<use xlink:href="#SVGID_00000008862342910502816710000015928235190304291510_"  style="overflow:visible;"/>
				</clipPath>
				<g style="opacity:0.69;clip-path:url(#SVGID_00000131330630994736714340000004671568160476698260_);">
					
						<linearGradient id="SVGID_00000116937331625673510520000016687233354522082944_" gradientUnits="userSpaceOnUse" x1="3890.8342" y1="-590.2875" x2="417.9442" y2="4252.9287">
						<stop  offset="0" style="stop-color:#53D8FF"/>
						<stop  offset="1" style="stop-color:#3840F7"/>
					</linearGradient>
					<polygon style="fill:url(#SVGID_00000116937331625673510520000016687233354522082944_);" points="2384.188,1328.219 
						2554.846,1458.795 2438.525,1567.855 2301.432,1440.315 					"/>
					
						<linearGradient id="SVGID_00000020384132631262162910000004913567246500700329_" gradientUnits="userSpaceOnUse" x1="1444.9868" y1="1423.3075" x2="1306.9347" y2="1906.4899">
						<stop  offset="0" style="stop-color:#53D8FF"/>
						<stop  offset="1" style="stop-color:#3840F7"/>
					</linearGradient>
					<polygon style="fill:url(#SVGID_00000020384132631262162910000004913567246500700329_);" points="1265.233,1584.535 
						1279.469,1440.315 1527.906,1512.425 1527.906,1695.396 					"/>
					
						<linearGradient id="SVGID_00000143574819978332135680000007018664832797574284_" gradientUnits="userSpaceOnUse" x1="2811.1138" y1="2023.993" x2="2742.0879" y2="2778.6792">
						<stop  offset="0" style="stop-color:#53D8FF"/>
						<stop  offset="1" style="stop-color:#3840F7"/>
					</linearGradient>
					<polygon style="fill:url(#SVGID_00000143574819978332135680000007018664832797574284_);" points="2687.792,2481.805 
						2825.57,2413.002 2844.218,2552.57 2723.789,2591.259 					"/>
					
						<linearGradient id="SVGID_00000016782886443080056920000013246719026127873936_" gradientUnits="userSpaceOnUse" x1="1677.6368" y1="2229.4211" x2="1461.3555" y2="2788.5322">
						<stop  offset="0" style="stop-color:#53D8FF"/>
						<stop  offset="1" style="stop-color:#3840F7"/>
					</linearGradient>
					<polygon style="fill:url(#SVGID_00000016782886443080056920000013246719026127873936_);" points="1389.558,2592.871 
						1527.906,2664.028 1665.821,2641.232 1653.358,2546.927 1527.906,2517.911 					"/>
					<polygon style="fill:#FFFFFF;" points="1248.493,1588.679 873.098,1720.853 881.116,1751.713 935.332,1732.624 
						1282.703,1842.468 1288.511,1817.574 975.328,1718.541 1244.082,1623.916 1494.808,1816.435 1460.306,2094.258 
						1186.107,2116.921 944.978,2495.493 967.226,2514.697 1200.772,2148.033 1484.526,2124.58 1524.736,1800.789 					"/>
					<polygon style="fill:#FFFFFF;" points="1131.33,2704.266 844.695,2421.395 862.605,2396.801 1149.239,2679.671 					"/>
					<polygon style="fill:#FFFFFF;" points="2231.176,2422.376 2060.127,1932.041 2034.463,1944.173 2124.457,2202.144 
						1687.413,2358.586 1695.554,2389.406 2134.918,2232.133 2205.516,2434.508 					"/>
					<polygon style="fill:#FFFFFF;" points="2596.58,2326.976 2513.298,2432.433 2348.811,2056.629 2329.068,2068.339 
						2497.2,2452.47 2497.714,2452.165 2433.573,2533.383 2453.962,2555.204 2616.969,2348.796 					"/>
					<path style="fill:#FFFFFF;" d="M2496.415,1675.375l-16.074-26.257c-0.7,0.581-1.133,1.067-1.163,1.102
						c8.8-10.024,128.143-178.147,206.219-288.714l9.742-13.798l177.59,208.804l-19.683,22.686l-156.002-183.424
						c-17.148,24.262-54.444,76.989-91.801,129.557C2501.786,1670.918,2498.933,1673.286,2496.415,1675.375z"/>
					<polygon style="fill:#FFFFFF;" points="2138.584,1846.271 2082.936,1624.522 2014.924,1422.385 1710.493,1443.453 
						1708.85,1411.267 2033.374,1388.808 2109.348,1614.792 2165.169,1837.231 					"/>
					<polygon style="fill:#FFFFFF;" points="1263.507,1591.366 1241.415,1589.398 1252.946,1413.827 1530.148,1480.524 
						1525.664,1505.783 1273.119,1445.021 					"/>
					<polygon style="fill:#FFFFFF;" points="2435.053,1586.679 2421.226,1566.525 2536.52,1459.329 2376.771,1325.469 
						2389.717,1304.533 2573.172,1458.262 					"/>
					<polygon style="fill:#FFFFFF;" points="2882.113,2584.044 2698.35,1825.645 2671.695,1834.397 2810.385,2406.779 
						2680.654,2471.564 2689.391,2495.27 2814.046,2433.017 2828.983,2544.806 2731.921,2575.988 2737.815,2600.853 
						2848.773,2565.208 2855.459,2592.798 					"/>
					<path style="fill:#FFFFFF;" d="M1532.647,2885.759l-407.554-188.751l10.239-29.96l387.401,179.419l110.28-179.538
						l-99.125,27.559l-168.849-91.45l11.683-29.232l160.108,86.715l127.44-35.431c12.267-3.411,22.358,9.985,15.694,20.835
						L1532.647,2885.759z"/>
					<polygon style="fill:#FFFFFF;" points="2417.967,2539.592 2140.628,2889.037 1858.848,2584.092 1700.167,2350.922 
						1682.799,2366.94 1842.005,2600.88 1842.528,2601.648 2125.592,2907.985 2081.613,2963.397 2101.955,2985.278 
						2438.311,2561.473 					"/>
				</g>
				<g style="clip-path:url(#SVGID_00000131330630994736714340000004671568160476698260_);">
					
						<linearGradient id="SVGID_00000085228294959441555100000000257645499960931992_" gradientUnits="userSpaceOnUse" x1="3208.5471" y1="-1079.5321" x2="-264.3478" y2="3763.6907">
						<stop  offset="0" style="stop-color:#53D8FF"/>
						<stop  offset="1" style="stop-color:#3840F7"/>
					</linearGradient>
					<path style="fill:url(#SVGID_00000085228294959441555100000000257645499960931992_);" d="M1617.571,1832.474l-96.79-124.619
						c-216.912-89.015-463.967-181.04-655.611-191.614l1.181-28.987c195.75,10.802,446.365,104.362,665.703,194.458l2.979,1.223
						l101.028,130.076L1617.571,1832.474z"/>
					
						<linearGradient id="SVGID_00000013888936435290172900000004462172390341207188_" gradientUnits="userSpaceOnUse" x1="4384.519" y1="-236.2811" x2="911.6316" y2="4606.9312">
						<stop  offset="0" style="stop-color:#53D8FF"/>
						<stop  offset="1" style="stop-color:#3840F7"/>
					</linearGradient>
					<path style="fill:url(#SVGID_00000013888936435290172900000004462172390341207188_);" d="M2834.927,2825.296
						c-211.297-151.001-450.296-317.215-616.346-381.489l-539.761,231.932l-8.632-27.223l547.907-235.432l4.118,1.563
						c168.783,64.082,411.501,232.803,625.757,385.919L2834.927,2825.296z"/>
					
						<linearGradient id="SVGID_00000054254415764231944610000012260400391988228268_" gradientUnits="userSpaceOnUse" x1="3432.7512" y1="-918.7604" x2="-40.1411" y2="3924.4587">
						<stop  offset="0" style="stop-color:#53D8FF"/>
						<stop  offset="1" style="stop-color:#3840F7"/>
					</linearGradient>
					<polygon style="fill:url(#SVGID_00000054254415764231944610000012260400391988228268_);" points="1780.972,1728.422 
						1615.26,1250.864 1638.372,1239.994 1804.084,1717.553 					"/>
					
						<linearGradient id="SVGID_00000096027683120228355920000001920720067219042972_" gradientUnits="userSpaceOnUse" x1="3978.324" y1="-527.5427" x2="505.4302" y2="4315.6782">
						<stop  offset="0" style="stop-color:#53D8FF"/>
						<stop  offset="1" style="stop-color:#3840F7"/>
					</linearGradient>
					<path style="fill:url(#SVGID_00000096027683120228355920000001920720067219042972_);" d="M2531.911,1860.614
						c-42.865-193.575-125.445-326.889-252.457-407.563l11.939-25.473c70.078,44.511,128.188,105.224,172.712,180.451
						c40.443,68.33,70.518,148.582,91.943,245.339L2531.911,1860.614z"/>
					
						<linearGradient id="SVGID_00000099647975691112205950000008601154408191848839_" gradientUnits="userSpaceOnUse" x1="3642.5007" y1="-768.3585" x2="169.5984" y2="4074.8745">
						<stop  offset="0" style="stop-color:#53D8FF"/>
						<stop  offset="1" style="stop-color:#3840F7"/>
					</linearGradient>
					<polygon style="fill:url(#SVGID_00000099647975691112205950000008601154408191848839_);" points="1237.943,2656.282 
						1217.136,2640.047 1462.013,2201.204 1482.82,2217.439 					"/>
					
						<linearGradient id="SVGID_00000048502268146856405300000002962092144036276374_" gradientUnits="userSpaceOnUse" x1="4013.2417" y1="-502.5135" x2="540.3491" y2="4340.7061">
						<stop  offset="0" style="stop-color:#53D8FF"/>
						<stop  offset="1" style="stop-color:#3840F7"/>
					</linearGradient>
					<polygon style="fill:url(#SVGID_00000048502268146856405300000002962092144036276374_);" points="2600.684,1877.099 
						1881.291,1843.715 1882.284,1814.718 2596.25,1847.85 2858.159,1722.859 2867.615,1749.707 					"/>
					
						<linearGradient id="SVGID_00000017504539069358908400000012115943225002614431_" gradientUnits="userSpaceOnUse" x1="3699.7148" y1="-727.3295" x2="226.8207" y2="4115.8921">
						<stop  offset="0" style="stop-color:#53D8FF"/>
						<stop  offset="1" style="stop-color:#3840F7"/>
					</linearGradient>
					<polygon style="fill:url(#SVGID_00000017504539069358908400000012115943225002614431_);" points="881.593,2823.683 
						872.622,2796.607 1526.187,2503.131 1654.59,2517.981 1652.126,2546.858 1529.624,2532.69 					"/>
					
						<linearGradient id="SVGID_00000170254546175877493550000015737840644344250271_" gradientUnits="userSpaceOnUse" x1="3530.3386" y1="-848.7707" x2="57.4523" y2="3994.4402">
						<stop  offset="0" style="stop-color:#53D8FF"/>
						<stop  offset="1" style="stop-color:#3840F7"/>
					</linearGradient>
					<path style="fill:url(#SVGID_00000170254546175877493550000015737840644344250271_);" d="M1723.849,2234.573
						c-280.605-3.459-543.586-20.057-677.713-182.983l17.997-20.079c127.429,154.791,384.897,170.654,659.979,174.047
						L1723.849,2234.573z"/>
					
						<linearGradient id="SVGID_00000176024830269415783250000016532438127964255893_" gradientUnits="userSpaceOnUse" x1="3894.1721" y1="-587.8937" x2="421.2827" y2="4255.3213">
						<stop  offset="0" style="stop-color:#53D8FF"/>
						<stop  offset="1" style="stop-color:#3840F7"/>
					</linearGradient>
					<polygon style="fill:url(#SVGID_00000176024830269415783250000016532438127964255893_);" points="1699.226,2921.223 
						1640.572,2514.466 1641.465,2511.15 1810.414,1884.128 1886.141,1734.89 2185.815,1546.348 2385.715,1290.259 
						2404.164,1309.774 2201.405,1569.525 1904.081,1756.587 1833.339,1896.005 1666.144,2516.519 1723.81,2916.418 					"/>
					
						<linearGradient id="SVGID_00000114768826941209329080000008522209247721702031_" gradientUnits="userSpaceOnUse" x1="4033.1987" y1="-488.203" x2="560.3047" y2="4355.0186">
						<stop  offset="0" style="stop-color:#53D8FF"/>
						<stop  offset="1" style="stop-color:#3840F7"/>
					</linearGradient>
					<polygon style="fill:url(#SVGID_00000114768826941209329080000008522209247721702031_);" points="2863.82,2890.057 
						2513.667,2152.451 1866.35,1876.392 1751.133,1844.401 1332.973,1807.602 871.243,2201.488 856.508,2178.08 1325.668,1777.86 
						1330.26,1778.263 1754.99,1815.639 1873.551,1848.559 1874.237,1848.85 2530.983,2128.931 2533.233,2133.673 2885.637,2876.02 
											"/>
				</g>
			</g>
			<ellipse style="opacity:0.69;fill:#FFFFFF;" cx="1821.877" cy="1806.527" rx="83.612" ry="83.54"/>
			
				<linearGradient id="SVGID_00000043437808014636223630000015272639047504641698_" gradientUnits="userSpaceOnUse" x1="3659.4937" y1="-756.1733" x2="186.5999" y2="4087.0476">
				<stop  offset="0" style="stop-color:#53D8FF"/>
				<stop  offset="1" style="stop-color:#3840F7"/>
			</linearGradient>
			
				<ellipse style="fill:url(#SVGID_00000043437808014636223630000015272639047504641698_);" cx="1821.877" cy="1806.527" rx="59.911" ry="59.859"/>
		</g>
		<g>
			
				<linearGradient id="SVGID_00000078738480295518668960000004736324899251332767_" gradientUnits="userSpaceOnUse" x1="-2105.7595" y1="1759.0511" x2="-2014.6869" y2="1987.5045" gradientTransform="matrix(-1 0 0 1 -1165.4333 0)">
				<stop  offset="0" style="stop-color:#2B3582"/>
				<stop  offset="1" style="stop-color:#150E42"/>
			</linearGradient>
			<path style="fill:url(#SVGID_00000078738480295518668960000004736324899251332767_);" d="M886.326,1881.941
				c0,0-30.703,14.934-36.348,32.09c-4.53,13.765-38.479,15.54-41.832,42.612c-1.732,13.977-12.075,25.171-25.996,27.305
				c-34.674,5.314-88.109,23.319-96.658,83.52c-6.526,45.951,16.9,63.374,41.483,69.405c18.056,4.429,30.056,21.992,26.404,40.221
				c-3.503,17.485,1.72,37.697,32.012,53.681c67.879,35.818,135.668-84.855,135.668-84.855l13.893-210.702L886.326,1881.941z"/>
			
				<linearGradient id="SVGID_00000162346730938722214070000010046264661321125264_" gradientUnits="userSpaceOnUse" x1="-2454.0269" y1="1564.9192" x2="-2285.7783" y2="1947.7228" gradientTransform="matrix(-0.9776 -0.2106 -0.2106 0.9776 -915.0133 -113.5247)">
				<stop  offset="0" style="stop-color:#F9B776"/>
				<stop  offset="1" style="stop-color:#F47960"/>
			</linearGradient>
			<path style="fill:url(#SVGID_00000162346730938722214070000010046264661321125264_);" d="M1255.678,1831.989
				c0,0-135.531,214.372-296.694,255.779c0,0,31.403,89.441,55.642,99.677c0,0,198.275-165.438,249.229-324.995L1255.678,1831.989z"
				/>
			
				<linearGradient id="SVGID_00000088834765019073054440000017817203720968861834_" gradientUnits="userSpaceOnUse" x1="-1772.8375" y1="3221.6338" x2="-1695.6118" y2="3221.6338" gradientTransform="matrix(-1 0 0 1 -1165.4333 0)">
				<stop  offset="0" style="stop-color:#A737D5"/>
				<stop  offset="1" style="stop-color:#EF497A"/>
			</linearGradient>
			<path style="fill:url(#SVGID_00000088834765019073054440000017817203720968861834_);" d="M607.312,3203.113l-4.393,36.11
				c-0.833,6.851-6.226,12.267-13.083,13.05c-11.576,1.323-30.153,2.678-48.328,0.757c-7.978-0.844-13.157-8.922-10.727-16.567
				c4.431-13.94,12.537-34.866,24.223-47.18h40.058C602.469,3189.282,608.207,3195.76,607.312,3203.113z"/>
			
				<linearGradient id="SVGID_00000109028574250205834560000011584819420064104380_" gradientUnits="userSpaceOnUse" x1="-2099.1572" y1="3526.1699" x2="-1988.0234" y2="2227.2944" gradientTransform="matrix(-1 0 0 1 -1165.4333 0)">
				<stop  offset="0" style="stop-color:#F9B776"/>
				<stop  offset="1" style="stop-color:#F47960"/>
			</linearGradient>
			<path style="fill:url(#SVGID_00000109028574250205834560000011584819420064104380_);" d="M921.057,2780.104l6.761,39.772
				c0,0-22.642,229.34-26.669,321.076c-0.631,14.383,3.089,28.596,10.638,40.854l39.37,63.933l-100.058-59.043l-1.992-12.21
				l16.379-22.521l-21.455-256.918c-1.26-15.093,1.854-30.229,8.971-43.598l20.696-38.88L921.057,2780.104z"/>
			
				<linearGradient id="SVGID_00000047782254902503131820000015874331342128721812_" gradientUnits="userSpaceOnUse" x1="-2131.6228" y1="3207.5339" x2="-2006.6652" y2="3207.5339" gradientTransform="matrix(-1 0 0 1 -1165.4333 0)">
				<stop  offset="0" style="stop-color:#A737D5"/>
				<stop  offset="1" style="stop-color:#EF497A"/>
			</linearGradient>
			<path style="fill:url(#SVGID_00000047782254902503131820000015874331342128721812_);" d="M957.746,3255h-31.93
				c-5.977,0-11.613-2.744-15.258-7.48c-9.954-12.935-30.578-38.169-40.44-38.828c-13.275-0.887-11.577,46.308-11.577,46.308h-7.441
				l-9.426-58.645c-2.372-14.756,4.966-29.373,18.216-36.287l0,0c0,0,3.035,22.442,19.49,32.37
				c16.454,9.927,66.96,45.477,66.96,45.477s6.186-0.882,12.977,0.345C969.391,3240.081,967.984,3255,957.746,3255z"/>
			
				<linearGradient id="SVGID_00000129895440227682838000000015393818008492700297_" gradientUnits="userSpaceOnUse" x1="-1875.6049" y1="3545.4968" x2="-1764.4419" y2="2246.2791" gradientTransform="matrix(-1 0 0 1 -1165.4333 0)">
				<stop  offset="0" style="stop-color:#F9B776"/>
				<stop  offset="1" style="stop-color:#F47960"/>
			</linearGradient>
			<path style="fill:url(#SVGID_00000129895440227682838000000015393818008492700297_);" d="M784.011,2798.993
				c0,0-132.641,251.607-153.726,309.053c-21.084,57.446-28.471,105.369-28.753,109.907c-0.443,7.091-9.262,13.892-33.574,13.892
				c-12.547,0-18.692-5.029-21.7-9.897c-2.567-4.153-2.7-9.35-0.537-13.728c7.673-15.528,32.022-65.151,41.04-87.657
				c10.766-26.872,33.926-148.651,46.628-190.992c12.702-42.342,27.059-88.271,82.371-130.578
				C715.759,2798.993,753.729,2761.804,784.011,2798.993z"/>
			
				<linearGradient id="SVGID_00000018236874267860031490000009849966382371703480_" gradientUnits="userSpaceOnUse" x1="1117.1945" y1="1927.4999" x2="2571.2075" y2="-436.575">
				<stop  offset="0" style="stop-color:#FDF53F"/>
				<stop  offset="1" style="stop-color:#D93C65"/>
			</linearGradient>
			<path style="fill:url(#SVGID_00000018236874267860031490000009849966382371703480_);" d="M867.802,2386.722
				c34.215-144.984-52.463-226.986-52.463-226.986c54.692-52.498,154.34-76.387,154.34-76.387s95.086,69.517,83.806,123.928
				c-6.611,31.891-66.836,191.021-66.836,191.021S930.96,2424.655,867.802,2386.722z"/>
			
				<linearGradient id="SVGID_00000170981572174935953130000011196942360554377880_" gradientUnits="userSpaceOnUse" x1="654.9849" y1="2887.7163" x2="1470.8257" y2="1883.6061">
				<stop  offset="0" style="stop-color:#2B3582"/>
				<stop  offset="1" style="stop-color:#150E42"/>
			</linearGradient>
			<path style="fill:url(#SVGID_00000170981572174935953130000011196942360554377880_);" d="M791.942,2458.5
				c13.925-41.948,75.861-71.778,75.861-71.778c63.158,37.933,118.848,11.577,118.848,11.577s12.489,47.737,3.869,92.101
				c-8.62,44.363-62.701,329.475-62.701,329.475c-85.214,17.266-216.271-17.372-216.271-17.372
				C765.825,2706.137,778.017,2500.448,791.942,2458.5z"/>
			
				<linearGradient id="SVGID_00000150787645509973603690000010867823222009020083_" gradientUnits="userSpaceOnUse" x1="-2111.3447" y1="2245.8667" x2="-2090.4685" y2="2093.1423" gradientTransform="matrix(-1 0 0 1 -1165.4333 0)">
				<stop  offset="0" style="stop-color:#F9B776"/>
				<stop  offset="1" style="stop-color:#F47960"/>
			</linearGradient>
			<path style="fill:url(#SVGID_00000150787645509973603690000010867823222009020083_);" d="M907.518,1987.539L879.7,2112.491
				c-2.663,11.006,7.37,9.205,18.498,7.107c18.222-3.435,41.709-10.511,49.56-24.691c0.799-1.443,1.198-3.074,1.424-4.709
				l11.951-86.645c0.949-6.874-2.768-13.545-9.112-16.358l-23.062-10.226C920.08,1973.032,909.802,1978.098,907.518,1987.539z"/>
			<g>
				
					<linearGradient id="SVGID_00000160876836387892894130000016900409914086285469_" gradientUnits="userSpaceOnUse" x1="-2302.8743" y1="1747.1039" x2="-2120.7214" y2="1422.933" gradientTransform="matrix(-0.9809 -0.1943 -0.1943 0.9809 -936.3432 -99.2406)">
					<stop  offset="0" style="stop-color:#F9B776"/>
					<stop  offset="1" style="stop-color:#F47960"/>
				</linearGradient>
				<path style="fill:url(#SVGID_00000160876836387892894130000016900409914086285469_);" d="M960.8,1873.632
					c0,0,29.615,20.047,42.341,71.099c12.725,51.053-7.956,69.365-29.154,68.243c-21.199-1.122-51.935-7.678-78.566-44.303
					C868.79,1932.046,921.992,1849.135,960.8,1873.632z"/>
				
					<linearGradient id="SVGID_00000091700511128825130300000006329100869999147199_" gradientUnits="userSpaceOnUse" x1="-2263.7004" y1="1464.8029" x2="-2172.6243" y2="1693.2655" gradientTransform="matrix(-0.9809 -0.1943 -0.1943 0.9809 -936.3432 -99.2406)">
					<stop  offset="0" style="stop-color:#2B3582"/>
					<stop  offset="1" style="stop-color:#150E42"/>
				</linearGradient>
				<path style="fill:url(#SVGID_00000091700511128825130300000006329100869999147199_);" d="M922.276,1948.08
					c0,0-10.851-73.153,49.885-61.964l12.281,12.786c0,0,29.728-33.48-3.17-58.787c-32.899-25.308-78.552-18.827-103.81,27.246
					c-25.258,46.074-34.425,78.448-13.254,107.077c21.171,28.629,37.095,4.076,37.095,4.076s-9.709-24.779-1.653-35.412
					c8.057-10.633,18.45,6.184,18.45,6.184L922.276,1948.08z"/>
				
					<linearGradient id="SVGID_00000095310893841512409190000001141130927881327757_" gradientUnits="userSpaceOnUse" x1="-2264.1008" y1="1768.8926" x2="-2081.9492" y2="1444.7238" gradientTransform="matrix(-0.9809 -0.1943 -0.1943 0.9809 -936.3432 -99.2406)">
					<stop  offset="0" style="stop-color:#F9B776"/>
					<stop  offset="1" style="stop-color:#F47960"/>
				</linearGradient>
				<path style="fill:url(#SVGID_00000095310893841512409190000001141130927881327757_);" d="M913.976,1954.345
					c0,0-5.357-37.637-24.579-26.878c-19.221,10.76,6.927,35.158,17.412,43.46L913.976,1954.345z"/>
			</g>
			<g>
				
					<linearGradient id="SVGID_00000065056430991120618340000017743034568906026684_" gradientUnits="userSpaceOnUse" x1="-2487.2761" y1="1579.5334" x2="-2319.0271" y2="1962.3378" gradientTransform="matrix(-0.9776 -0.2106 -0.2106 0.9776 -915.0133 -113.5247)">
					<stop  offset="0" style="stop-color:#F9B776"/>
					<stop  offset="1" style="stop-color:#F47960"/>
				</linearGradient>
				<path style="fill:url(#SVGID_00000065056430991120618340000017743034568906026684_);" d="M1254.747,1876.122
					c0.411,4.422-16.034,7.478-21.267-11.374c1.439-8.185,3.994-44.025,10.269-49.594c33.423-29.656,93.023-63.017,93.023-63.017
					c6.666,10.177-2.076,16.88-2.076,16.88l-29.751,20.078c3.104,10.279,7.633,19.367,8.145,31.102
					c0.388,8.887-2.895,17.588-8.794,24.328c-5.921,6.765-13.892,15.5-21.077,22.132
					C1269.619,1879.209,1254.747,1876.122,1254.747,1876.122z"/>
				
					<linearGradient id="SVGID_00000026128633117451828480000011887658789394267266_" gradientUnits="userSpaceOnUse" x1="1251.6807" y1="1830.9658" x2="1296.6848" y2="1830.9658">
					<stop  offset="0" style="stop-color:#F9B776"/>
					<stop  offset="1" style="stop-color:#F47960"/>
				</linearGradient>
				<path style="fill:url(#SVGID_00000026128633117451828480000011887658789394267266_);" d="M1270.76,1861.447l-4.248-1.744
					c0.603-1.473,14.872-36.135,21.757-43.332c2.654-2.773,3.936-5.162,3.819-7.098c-0.069-1.092-0.615-2.164-1.659-3.255
					l-24.229,12.952l-10.652,16.686l-3.868-2.472l11.299-17.698l28.064-15.003l1.185,0.965c2.816,2.298,4.268,4.764,4.438,7.539
					c0.206,3.315-1.456,6.768-5.081,10.557C1286.368,1825.003,1274.781,1851.643,1270.76,1861.447z"/>
			</g>
			
				<linearGradient id="SVGID_00000052096637262122527790000007104667925321550008_" gradientUnits="userSpaceOnUse" x1="507.9033" y1="2363.8894" x2="878.6487" y2="2363.8894">
				<stop  offset="0" style="stop-color:#F9B776"/>
				<stop  offset="1" style="stop-color:#F47960"/>
			</linearGradient>
			<path style="fill:url(#SVGID_00000052096637262122527790000007104667925321550008_);" d="M815.34,2159.736
				c0,0-154,316.191-209.771,343.833c0,0-56.625,5.917-91.279,16.398c-8.718,2.637-8.426,15.016,0.361,17.413
				c24.133,6.582,64.117,12.082,100.761-7.81c0,0-19.684,29.505-8.202,40.998c0,0,26.245-31.156,36.087-40.998
				c8.665-8.665,166.37-180.598,232.672-284.289c5.357-8.378,1.64-33.275-2.081-42.497
				C865.323,2181.562,846.321,2147.68,815.34,2159.736z"/>
		</g>
		<g>
			
				<linearGradient id="SVGID_00000070106163067963675340000017127736921403301303_" gradientUnits="userSpaceOnUse" x1="2191.5789" y1="1806.2898" x2="3057.5518" y2="558.2696">
				<stop  offset="0" style="stop-color:#FDF53F"/>
				<stop  offset="1" style="stop-color:#D93C65"/>
			</linearGradient>
			
				<circle style="fill:url(#SVGID_00000070106163067963675340000017127736921403301303_);" cx="2363.565" cy="1558.427" r="67.535"/>
			<g>
				
					<linearGradient id="SVGID_00000029032628290874484740000000155436132406088847_" gradientUnits="userSpaceOnUse" x1="1744.186" y1="1407.6532" x2="2636.4839" y2="746.6908">
					<stop  offset="0" style="stop-color:#FDF53F"/>
					<stop  offset="1" style="stop-color:#D93C65"/>
				</linearGradient>
				<path style="fill:url(#SVGID_00000029032628290874484740000000155436132406088847_);" d="M2703.889,812.767
					c0,128.445-193.46,456.137-294.238,617.777c-7.82,12.543-24.666,20.161-55.859,20.161c-14.781,0-8.967-7.65-16.788-20.193
					c-100.784-161.653-294.218-489.314-294.218-617.744c0-167.485,147.993-303.258,330.551-303.258
					C2555.896,509.509,2703.889,645.283,2703.889,812.767z"/>
				
					<linearGradient id="SVGID_00000070114794269823576630000010842096553046771596_" gradientUnits="userSpaceOnUse" x1="2090.7983" y1="1312.2439" x2="3046.0972" y2="-458.894">
					<stop  offset="0" style="stop-color:#FDF53F"/>
					<stop  offset="1" style="stop-color:#D93C65"/>
				</linearGradient>
				<path style="fill:url(#SVGID_00000070114794269823576630000010842096553046771596_);" d="M2684.344,812.767
					c0,128.445-193.46,456.137-294.238,617.777c-7.82,12.543-21.558,20.167-36.339,20.161s-28.488-7.65-36.308-20.193
					c-100.784-161.653-294.217-489.314-294.217-617.744c0-167.485,147.993-303.258,330.552-303.258
					C2536.351,509.509,2684.344,645.283,2684.344,812.767z"/>
				
					<ellipse transform="matrix(0.7071 -0.7071 0.7071 0.7071 107.198 1912.2245)" style="opacity:0.36;fill:#FFFFFF;" cx="2361.858" cy="826.713" rx="201.746" ry="201.746"/>
				<circle style="opacity:0.36;fill:#FFFFFF;" cx="2342.305" cy="806.884" r="146.684"/>
				<path style="fill:#FFFFFF;" d="M2353.792,1082.587c-135.21,0-245.212-110.002-245.212-245.214c0-2.426,1.967-4.393,4.394-4.393
					s4.393,1.967,4.393,4.393c0,130.366,106.059,236.427,236.425,236.427c130.366,0,236.427-106.061,236.427-236.427
					s-106.061-236.426-236.427-236.426c-75.383,0-144.502,34.701-189.632,95.204c-1.452,1.945-4.208,2.346-6.149,0.895
					c-1.945-1.451-2.346-4.204-0.896-6.148c46.808-62.749,118.494-98.738,196.677-98.738c135.21,0,245.214,110.002,245.214,245.213
					C2599.006,972.585,2489.002,1082.587,2353.792,1082.587z"/>
			</g>
		</g>
	</g>
</g>
</svg>
